<mxfile host="app.diagrams.net" modified="2024-06-18T09:54:51.398Z" agent="Mozilla/5.0 (Windows NT 10.0; Win64; x64) AppleWebKit/537.36 (KHTML, like Gecko) Chrome/125.0.0.0 Safari/537.36" etag="enucQCamzVkV7DNnBof1" version="24.5.4" type="device">
  <diagram name="Page-1" id="0783ab3e-0a74-02c8-0abd-f7b4e66b4bec">
    <mxGraphModel dx="795" dy="343" grid="1" gridSize="10" guides="1" tooltips="1" connect="1" arrows="1" fold="1" page="1" pageScale="1" pageWidth="850" pageHeight="1100" background="none" math="0" shadow="0">
      <root>
        <mxCell id="0" />
        <mxCell id="1" parent="0" />
        <mxCell id="G6_bl8rhp0V13JjqWmCY-30" value="CreateWallet" style="swimlane;html=1;childLayout=stackLayout;startSize=20;rounded=0;shadow=0;comic=0;labelBackgroundColor=none;strokeWidth=1;fontFamily=Verdana;fontSize=12;align=center;" vertex="1" parent="1">
          <mxGeometry x="40" y="50" width="540" height="640" as="geometry" />
        </mxCell>
        <mxCell id="G6_bl8rhp0V13JjqWmCY-31" style="edgeStyle=orthogonalEdgeStyle;rounded=0;html=1;labelBackgroundColor=none;startArrow=none;startFill=0;startSize=5;endArrow=classicThin;endFill=1;endSize=5;jettySize=auto;orthogonalLoop=1;strokeWidth=1;fontFamily=Verdana;fontSize=12" edge="1" parent="G6_bl8rhp0V13JjqWmCY-30" source="G6_bl8rhp0V13JjqWmCY-35" target="G6_bl8rhp0V13JjqWmCY-45">
          <mxGeometry relative="1" as="geometry">
            <Array as="points">
              <mxPoint x="370" y="145" />
              <mxPoint x="370" y="145" />
            </Array>
            <mxPoint x="170" y="90" as="sourcePoint" />
          </mxGeometry>
        </mxCell>
        <mxCell id="G6_bl8rhp0V13JjqWmCY-32" style="edgeStyle=orthogonalEdgeStyle;rounded=0;html=1;labelBackgroundColor=none;startArrow=none;startFill=0;startSize=5;endArrow=classicThin;endFill=1;endSize=5;jettySize=auto;orthogonalLoop=1;strokeWidth=1;fontFamily=Verdana;fontSize=12" edge="1" parent="G6_bl8rhp0V13JjqWmCY-30" source="G6_bl8rhp0V13JjqWmCY-45" target="G6_bl8rhp0V13JjqWmCY-38">
          <mxGeometry relative="1" as="geometry">
            <Array as="points">
              <mxPoint x="388" y="217" />
            </Array>
            <mxPoint x="-100" y="217" as="sourcePoint" />
          </mxGeometry>
        </mxCell>
        <mxCell id="G6_bl8rhp0V13JjqWmCY-37" style="edgeStyle=orthogonalEdgeStyle;rounded=0;orthogonalLoop=1;jettySize=auto;html=1;entryX=0.5;entryY=0;entryDx=0;entryDy=0;" edge="1" parent="G6_bl8rhp0V13JjqWmCY-30" source="G6_bl8rhp0V13JjqWmCY-38" target="G6_bl8rhp0V13JjqWmCY-61">
          <mxGeometry relative="1" as="geometry">
            <mxPoint x="117.5" y="280" as="targetPoint" />
            <Array as="points">
              <mxPoint x="150" y="250" />
              <mxPoint x="428" y="250" />
              <mxPoint x="428" y="270" />
            </Array>
          </mxGeometry>
        </mxCell>
        <mxCell id="G6_bl8rhp0V13JjqWmCY-33" value="User" style="swimlane;html=1;startSize=20;" vertex="1" parent="G6_bl8rhp0V13JjqWmCY-30">
          <mxGeometry y="20" width="290" height="620" as="geometry" />
        </mxCell>
        <mxCell id="G6_bl8rhp0V13JjqWmCY-34" value="" style="ellipse;whiteSpace=wrap;html=1;rounded=0;shadow=0;comic=0;labelBackgroundColor=none;strokeWidth=1;fillColor=#000000;fontFamily=Verdana;fontSize=12;align=center;" vertex="1" parent="G6_bl8rhp0V13JjqWmCY-33">
          <mxGeometry x="135" y="40" width="40" height="40" as="geometry" />
        </mxCell>
        <mxCell id="G6_bl8rhp0V13JjqWmCY-35" value="Chọn &quot;Create Spend&quot;" style="rounded=1;whiteSpace=wrap;html=1;shadow=0;comic=0;labelBackgroundColor=none;strokeWidth=1;fontFamily=Verdana;fontSize=12;align=center;arcSize=50;" vertex="1" parent="G6_bl8rhp0V13JjqWmCY-33">
          <mxGeometry x="100" y="108" width="110" height="50" as="geometry" />
        </mxCell>
        <mxCell id="G6_bl8rhp0V13JjqWmCY-36" style="edgeStyle=orthogonalEdgeStyle;rounded=0;html=1;labelBackgroundColor=none;startArrow=none;startFill=0;startSize=5;endArrow=classicThin;endFill=1;endSize=5;jettySize=auto;orthogonalLoop=1;strokeWidth=1;fontFamily=Verdana;fontSize=12" edge="1" parent="G6_bl8rhp0V13JjqWmCY-33" source="G6_bl8rhp0V13JjqWmCY-34" target="G6_bl8rhp0V13JjqWmCY-35">
          <mxGeometry relative="1" as="geometry" />
        </mxCell>
        <mxCell id="G6_bl8rhp0V13JjqWmCY-38" value="Điền thông tin cơ bản của giao dịch" style="rounded=1;whiteSpace=wrap;html=1;shadow=0;comic=0;labelBackgroundColor=none;strokeWidth=1;fontFamily=Verdana;fontSize=12;align=center;arcSize=50;" vertex="1" parent="G6_bl8rhp0V13JjqWmCY-33">
          <mxGeometry x="90" y="180" width="125" height="42" as="geometry" />
        </mxCell>
        <mxCell id="G6_bl8rhp0V13JjqWmCY-56" value="" style="html=1;whiteSpace=wrap;aspect=fixed;shape=isoRectangle;" vertex="1" parent="G6_bl8rhp0V13JjqWmCY-33">
          <mxGeometry x="210" y="261" width="33.33" height="20" as="geometry" />
        </mxCell>
        <mxCell id="G6_bl8rhp0V13JjqWmCY-70" style="edgeStyle=orthogonalEdgeStyle;rounded=0;html=1;labelBackgroundColor=none;startArrow=none;startFill=0;startSize=5;endArrow=classicThin;endFill=1;endSize=5;jettySize=auto;orthogonalLoop=1;strokeWidth=1;fontFamily=Verdana;fontSize=12;exitX=0.042;exitY=0.489;exitDx=0;exitDy=0;exitPerimeter=0;" edge="1" parent="G6_bl8rhp0V13JjqWmCY-33" source="G6_bl8rhp0V13JjqWmCY-56" target="G6_bl8rhp0V13JjqWmCY-79">
          <mxGeometry relative="1" as="geometry">
            <Array as="points" />
            <mxPoint x="55" y="281" as="sourcePoint" />
            <mxPoint x="150" y="270" as="targetPoint" />
          </mxGeometry>
        </mxCell>
        <mxCell id="G6_bl8rhp0V13JjqWmCY-71" value="Không thỏa mãn" style="edgeLabel;html=1;align=center;verticalAlign=middle;resizable=0;points=[];" vertex="1" connectable="0" parent="G6_bl8rhp0V13JjqWmCY-70">
          <mxGeometry x="-0.1804" y="1" relative="1" as="geometry">
            <mxPoint x="13" y="-22" as="offset" />
          </mxGeometry>
        </mxCell>
        <mxCell id="G6_bl8rhp0V13JjqWmCY-82" style="edgeStyle=orthogonalEdgeStyle;rounded=0;orthogonalLoop=1;jettySize=auto;html=1;" edge="1" parent="G6_bl8rhp0V13JjqWmCY-33" source="G6_bl8rhp0V13JjqWmCY-79" target="G6_bl8rhp0V13JjqWmCY-80">
          <mxGeometry relative="1" as="geometry" />
        </mxCell>
        <mxCell id="G6_bl8rhp0V13JjqWmCY-79" value="Điền lại" style="rounded=1;whiteSpace=wrap;html=1;shadow=0;comic=0;labelBackgroundColor=none;strokeWidth=1;fontFamily=Verdana;fontSize=12;align=center;arcSize=50;" vertex="1" parent="G6_bl8rhp0V13JjqWmCY-33">
          <mxGeometry x="80" y="255.5" width="100" height="31" as="geometry" />
        </mxCell>
        <mxCell id="G6_bl8rhp0V13JjqWmCY-83" style="edgeStyle=orthogonalEdgeStyle;rounded=0;orthogonalLoop=1;jettySize=auto;html=1;" edge="1" parent="G6_bl8rhp0V13JjqWmCY-33" source="G6_bl8rhp0V13JjqWmCY-80" target="G6_bl8rhp0V13JjqWmCY-38">
          <mxGeometry relative="1" as="geometry">
            <Array as="points">
              <mxPoint x="37" y="201" />
            </Array>
          </mxGeometry>
        </mxCell>
        <mxCell id="G6_bl8rhp0V13JjqWmCY-84" value="Đồng ý" style="edgeLabel;html=1;align=center;verticalAlign=middle;resizable=0;points=[];" vertex="1" connectable="0" parent="G6_bl8rhp0V13JjqWmCY-83">
          <mxGeometry x="-0.4267" y="-2" relative="1" as="geometry">
            <mxPoint as="offset" />
          </mxGeometry>
        </mxCell>
        <mxCell id="G6_bl8rhp0V13JjqWmCY-86" style="edgeStyle=orthogonalEdgeStyle;rounded=0;orthogonalLoop=1;jettySize=auto;html=1;" edge="1" parent="G6_bl8rhp0V13JjqWmCY-33" source="G6_bl8rhp0V13JjqWmCY-80" target="G6_bl8rhp0V13JjqWmCY-85">
          <mxGeometry relative="1" as="geometry" />
        </mxCell>
        <mxCell id="G6_bl8rhp0V13JjqWmCY-87" value="Hủy bỏ" style="edgeLabel;html=1;align=center;verticalAlign=middle;resizable=0;points=[];" vertex="1" connectable="0" parent="G6_bl8rhp0V13JjqWmCY-86">
          <mxGeometry x="-0.168" relative="1" as="geometry">
            <mxPoint as="offset" />
          </mxGeometry>
        </mxCell>
        <mxCell id="G6_bl8rhp0V13JjqWmCY-80" value="" style="html=1;whiteSpace=wrap;aspect=fixed;shape=isoRectangle;" vertex="1" parent="G6_bl8rhp0V13JjqWmCY-33">
          <mxGeometry x="20" y="261" width="33.33" height="20" as="geometry" />
        </mxCell>
        <mxCell id="G6_bl8rhp0V13JjqWmCY-85" value="" style="shape=mxgraph.bpmn.shape;html=1;verticalLabelPosition=bottom;labelBackgroundColor=#ffffff;verticalAlign=top;perimeter=ellipsePerimeter;outline=end;symbol=terminate;rounded=0;shadow=0;comic=0;strokeWidth=1;fontFamily=Verdana;fontSize=12;align=center;" vertex="1" parent="G6_bl8rhp0V13JjqWmCY-33">
          <mxGeometry x="16.66" y="320" width="40" height="40" as="geometry" />
        </mxCell>
        <mxCell id="G6_bl8rhp0V13JjqWmCY-44" value="System" style="swimlane;html=1;startSize=20;" vertex="1" parent="G6_bl8rhp0V13JjqWmCY-30">
          <mxGeometry x="290" y="20" width="250" height="620" as="geometry" />
        </mxCell>
        <mxCell id="G6_bl8rhp0V13JjqWmCY-45" value="Hiển thị màn hình Tạo Spend" style="rounded=1;whiteSpace=wrap;html=1;shadow=0;comic=0;labelBackgroundColor=none;strokeWidth=1;fontFamily=Verdana;fontSize=12;align=center;arcSize=50;" vertex="1" parent="G6_bl8rhp0V13JjqWmCY-44">
          <mxGeometry x="75" y="108" width="125" height="42" as="geometry" />
        </mxCell>
        <mxCell id="G6_bl8rhp0V13JjqWmCY-61" value="Không phải thẻ Credit, đủ số dư" style="rounded=1;whiteSpace=wrap;html=1;shadow=0;comic=0;labelBackgroundColor=none;strokeWidth=1;fontFamily=Verdana;fontSize=12;align=center;arcSize=50;" vertex="1" parent="G6_bl8rhp0V13JjqWmCY-44">
          <mxGeometry x="75" y="250" width="125" height="42" as="geometry" />
        </mxCell>
        <mxCell id="G6_bl8rhp0V13JjqWmCY-48" style="edgeStyle=orthogonalEdgeStyle;rounded=0;html=1;labelBackgroundColor=none;startArrow=none;startFill=0;startSize=5;endArrow=classicThin;endFill=1;endSize=5;jettySize=auto;orthogonalLoop=1;strokeWidth=1;fontFamily=Verdana;fontSize=12" edge="1" parent="G6_bl8rhp0V13JjqWmCY-44" source="G6_bl8rhp0V13JjqWmCY-46" target="G6_bl8rhp0V13JjqWmCY-47">
          <mxGeometry relative="1" as="geometry">
            <Array as="points" />
            <mxPoint x="-110" y="499.40999999999997" as="sourcePoint" />
            <mxPoint x="45" y="499.40999999999997" as="targetPoint" />
          </mxGeometry>
        </mxCell>
        <mxCell id="G6_bl8rhp0V13JjqWmCY-49" value="Đồng ý" style="edgeLabel;html=1;align=center;verticalAlign=middle;resizable=0;points=[];" vertex="1" connectable="0" parent="G6_bl8rhp0V13JjqWmCY-48">
          <mxGeometry x="-0.0739" y="-2" relative="1" as="geometry">
            <mxPoint as="offset" />
          </mxGeometry>
        </mxCell>
        <mxCell id="G6_bl8rhp0V13JjqWmCY-50" style="edgeStyle=orthogonalEdgeStyle;rounded=0;html=1;labelBackgroundColor=none;startArrow=none;startFill=0;startSize=5;endArrow=classicThin;endFill=1;endSize=5;jettySize=auto;orthogonalLoop=1;strokeWidth=1;fontFamily=Verdana;fontSize=12;exitX=0.495;exitY=1.093;exitDx=0;exitDy=0;exitPerimeter=0;" edge="1" parent="G6_bl8rhp0V13JjqWmCY-44" source="G6_bl8rhp0V13JjqWmCY-46" target="G6_bl8rhp0V13JjqWmCY-52">
          <mxGeometry relative="1" as="geometry">
            <Array as="points" />
            <mxPoint x="-123" y="472" as="sourcePoint" />
            <mxPoint x="-123" y="500" as="targetPoint" />
          </mxGeometry>
        </mxCell>
        <mxCell id="G6_bl8rhp0V13JjqWmCY-51" value="Hủy" style="edgeLabel;html=1;align=center;verticalAlign=middle;resizable=0;points=[];" vertex="1" connectable="0" parent="G6_bl8rhp0V13JjqWmCY-50">
          <mxGeometry x="-0.1804" y="1" relative="1" as="geometry">
            <mxPoint as="offset" />
          </mxGeometry>
        </mxCell>
        <mxCell id="G6_bl8rhp0V13JjqWmCY-39" value="Lưu giao dịch" style="rounded=1;whiteSpace=wrap;html=1;shadow=0;comic=0;labelBackgroundColor=none;strokeWidth=1;fontFamily=Verdana;fontSize=12;align=center;arcSize=50;" vertex="1" parent="G6_bl8rhp0V13JjqWmCY-44">
          <mxGeometry x="-207.5" y="410" width="125" height="42" as="geometry" />
        </mxCell>
        <mxCell id="G6_bl8rhp0V13JjqWmCY-55" style="edgeStyle=orthogonalEdgeStyle;rounded=0;orthogonalLoop=1;jettySize=auto;html=1;" edge="1" parent="G6_bl8rhp0V13JjqWmCY-44" source="G6_bl8rhp0V13JjqWmCY-39" target="G6_bl8rhp0V13JjqWmCY-46">
          <mxGeometry relative="1" as="geometry" />
        </mxCell>
        <mxCell id="G6_bl8rhp0V13JjqWmCY-46" value="" style="html=1;whiteSpace=wrap;aspect=fixed;shape=isoRectangle;" vertex="1" parent="G6_bl8rhp0V13JjqWmCY-44">
          <mxGeometry x="-161.67" y="490" width="33.33" height="20" as="geometry" />
        </mxCell>
        <mxCell id="G6_bl8rhp0V13JjqWmCY-52" value="" style="shape=mxgraph.bpmn.shape;html=1;verticalLabelPosition=bottom;labelBackgroundColor=#ffffff;verticalAlign=top;perimeter=ellipsePerimeter;outline=end;symbol=terminate;rounded=0;shadow=0;comic=0;strokeWidth=1;fontFamily=Verdana;fontSize=12;align=center;" vertex="1" parent="G6_bl8rhp0V13JjqWmCY-44">
          <mxGeometry x="-165.01" y="570" width="40" height="40" as="geometry" />
        </mxCell>
        <mxCell id="G6_bl8rhp0V13JjqWmCY-54" value="" style="shape=mxgraph.bpmn.shape;html=1;verticalLabelPosition=bottom;labelBackgroundColor=#ffffff;verticalAlign=top;perimeter=ellipsePerimeter;outline=end;symbol=terminate;rounded=0;shadow=0;comic=0;strokeWidth=1;fontFamily=Verdana;fontSize=12;align=center;" vertex="1" parent="G6_bl8rhp0V13JjqWmCY-44">
          <mxGeometry x="123.5" y="570" width="40" height="40" as="geometry" />
        </mxCell>
        <mxCell id="G6_bl8rhp0V13JjqWmCY-88" style="edgeStyle=orthogonalEdgeStyle;rounded=0;orthogonalLoop=1;jettySize=auto;html=1;" edge="1" parent="G6_bl8rhp0V13JjqWmCY-44" source="G6_bl8rhp0V13JjqWmCY-47" target="G6_bl8rhp0V13JjqWmCY-54">
          <mxGeometry relative="1" as="geometry" />
        </mxCell>
        <mxCell id="G6_bl8rhp0V13JjqWmCY-47" value="Tạo giao dịch mới, trừ tiền trong Ví" style="rounded=1;whiteSpace=wrap;html=1;shadow=0;comic=0;labelBackgroundColor=none;strokeWidth=1;fontFamily=Verdana;fontSize=12;align=center;arcSize=50;" vertex="1" parent="G6_bl8rhp0V13JjqWmCY-44">
          <mxGeometry x="75" y="470" width="137" height="60" as="geometry" />
        </mxCell>
        <mxCell id="G6_bl8rhp0V13JjqWmCY-63" style="edgeStyle=orthogonalEdgeStyle;rounded=0;orthogonalLoop=1;jettySize=auto;html=1;" edge="1" parent="G6_bl8rhp0V13JjqWmCY-30" source="G6_bl8rhp0V13JjqWmCY-61" target="G6_bl8rhp0V13JjqWmCY-56">
          <mxGeometry relative="1" as="geometry" />
        </mxCell>
        <mxCell id="G6_bl8rhp0V13JjqWmCY-75" style="edgeStyle=orthogonalEdgeStyle;rounded=0;html=1;labelBackgroundColor=none;startArrow=none;startFill=0;startSize=5;endArrow=classicThin;endFill=1;endSize=5;jettySize=auto;orthogonalLoop=1;strokeWidth=1;fontFamily=Verdana;fontSize=12;" edge="1" parent="G6_bl8rhp0V13JjqWmCY-30" source="G6_bl8rhp0V13JjqWmCY-56" target="G6_bl8rhp0V13JjqWmCY-39">
          <mxGeometry relative="1" as="geometry">
            <Array as="points">
              <mxPoint x="227" y="370" />
              <mxPoint x="145" y="370" />
            </Array>
            <mxPoint x="120.64487000000005" y="311.02" as="sourcePoint" />
            <mxPoint x="149.9999999999999" y="458" as="targetPoint" />
          </mxGeometry>
        </mxCell>
        <mxCell id="G6_bl8rhp0V13JjqWmCY-76" value="Thỏa mãn" style="edgeLabel;html=1;align=center;verticalAlign=middle;resizable=0;points=[];" vertex="1" connectable="0" parent="G6_bl8rhp0V13JjqWmCY-75">
          <mxGeometry x="-0.0739" y="-2" relative="1" as="geometry">
            <mxPoint as="offset" />
          </mxGeometry>
        </mxCell>
      </root>
    </mxGraphModel>
  </diagram>
</mxfile>
